<svg width="185" height="32" viewBox="0 0 185 32" fill="none" xmlns="http://www.w3.org/2000/svg">
<title>react-mediadrop</title>
<rect width="32" height="32" rx="8.25" fill="black"/>
<path d="M21.5834 14.7347L15.8412 20.4778L14.5717 19.2073H14.5707L10.4037 15.0403L11.6732 13.7698L15.8412 17.9378L20.3138 13.4651L21.5834 14.7347Z" fill="#00D9FF"/>
<path d="M21.5834 8.36328L15.8412 14.1064L14.5717 12.8359H14.5707L10.4037 8.66895L11.6732 7.39844L15.8412 11.5664L20.3138 7.09375L21.5834 8.36328Z" fill="#0080A9"/>
<path d="M8.78113 23.1456H23.2069V13.9132H24.9374V23.1456L24.9384 24.8771H7.04968V13.9132H8.78113V23.1456Z" fill="url(#paint0_linear_238_699)"/>
<path d="M174.554 24.69V11.01H177.014L177.074 13.29L176.814 13.17C177.081 12.3834 177.514 11.79 178.114 11.39C178.727 10.9767 179.441 10.77 180.254 10.77C181.267 10.77 182.107 11.0234 182.774 11.53C183.454 12.0367 183.961 12.71 184.294 13.55C184.627 14.39 184.794 15.3234 184.794 16.35C184.794 17.3767 184.621 18.31 184.274 19.15C183.941 19.99 183.434 20.6634 182.754 21.17C182.087 21.6767 181.247 21.93 180.234 21.93C179.701 21.93 179.201 21.8367 178.734 21.65C178.281 21.4634 177.887 21.1967 177.554 20.85C177.234 20.5034 177.007 20.0967 176.874 19.63L177.114 19.43V24.69H174.554ZM179.634 19.85C180.407 19.85 181.014 19.5434 181.454 18.93C181.907 18.3034 182.134 17.4434 182.134 16.35C182.134 15.2567 181.907 14.4034 181.454 13.79C181.014 13.1634 180.407 12.85 179.634 12.85C179.114 12.85 178.667 12.9834 178.294 13.25C177.921 13.5034 177.627 13.89 177.414 14.41C177.214 14.93 177.114 15.5767 177.114 16.35C177.114 17.1234 177.214 17.77 177.414 18.29C177.614 18.81 177.901 19.2034 178.274 19.47C178.661 19.7234 179.114 19.85 179.634 19.85Z" fill="black"/>
<path d="M168.138 21.93C167.085 21.93 166.158 21.7034 165.358 21.25C164.572 20.7834 163.958 20.13 163.518 19.29C163.092 18.45 162.878 17.47 162.878 16.35C162.878 15.2167 163.092 14.2367 163.518 13.41C163.958 12.57 164.572 11.9234 165.358 11.47C166.158 11.0034 167.085 10.77 168.138 10.77C169.192 10.77 170.112 11.0034 170.898 11.47C171.685 11.9234 172.292 12.57 172.718 13.41C173.158 14.2367 173.378 15.2167 173.378 16.35C173.378 17.47 173.158 18.45 172.718 19.29C172.292 20.13 171.685 20.7834 170.898 21.25C170.112 21.7034 169.192 21.93 168.138 21.93ZM168.138 19.85C168.965 19.85 169.598 19.5434 170.038 18.93C170.492 18.3167 170.718 17.4567 170.718 16.35C170.718 15.2567 170.492 14.4034 170.038 13.79C169.598 13.1634 168.965 12.85 168.138 12.85C167.312 12.85 166.672 13.1634 166.218 13.79C165.765 14.4034 165.538 15.2567 165.538 16.35C165.538 17.4567 165.765 18.3167 166.218 18.93C166.672 19.5434 167.312 19.85 168.138 19.85Z" fill="black"/>
<path d="M156.916 21.69V11.01H159.316L159.416 13.97L159.196 13.93C159.356 12.9033 159.656 12.1633 160.096 11.71C160.549 11.2433 161.162 11.01 161.936 11.01H162.916V13.21H161.916C161.369 13.21 160.916 13.29 160.556 13.45C160.196 13.61 159.922 13.8633 159.736 14.21C159.562 14.5433 159.476 14.9833 159.476 15.53V21.69H156.916Z" fill="black"/>
<path d="M148.937 21.93C148.031 21.93 147.244 21.7033 146.577 21.25C145.924 20.7967 145.417 20.15 145.057 19.31C144.697 18.47 144.517 17.4833 144.517 16.35C144.517 15.2167 144.697 14.23 145.057 13.39C145.417 12.55 145.931 11.9033 146.597 11.45C147.264 10.9967 148.044 10.77 148.937 10.77C149.684 10.77 150.337 10.9233 150.897 11.23C151.471 11.5367 151.904 11.97 152.197 12.53V7.48999H154.757V21.69H152.317L152.257 20.11C151.964 20.6833 151.524 21.13 150.937 21.45C150.351 21.77 149.684 21.93 148.937 21.93ZM149.717 19.85C150.251 19.85 150.697 19.7167 151.057 19.45C151.431 19.1833 151.711 18.79 151.897 18.27C152.097 17.7367 152.197 17.0967 152.197 16.35C152.197 15.59 152.097 14.95 151.897 14.43C151.711 13.91 151.431 13.5167 151.057 13.25C150.697 12.9833 150.251 12.85 149.717 12.85C148.944 12.85 148.324 13.1633 147.857 13.79C147.404 14.4033 147.177 15.2567 147.177 16.35C147.177 17.4167 147.404 18.27 147.857 18.91C148.324 19.5367 148.944 19.85 149.717 19.85Z" fill="black"/>
<path d="M137.592 21.93C136.472 21.93 135.572 21.6767 134.892 21.17C134.212 20.65 133.872 19.93 133.872 19.01C133.872 18.09 134.159 17.37 134.732 16.85C135.305 16.33 136.179 15.9567 137.352 15.73L140.892 15.03C140.892 14.27 140.719 13.7034 140.372 13.33C140.025 12.9434 139.512 12.75 138.832 12.75C138.219 12.75 137.732 12.8967 137.372 13.19C137.025 13.47 136.785 13.8767 136.652 14.41L134.052 14.29C134.265 13.1567 134.785 12.29 135.612 11.69C136.439 11.0767 137.512 10.77 138.832 10.77C140.352 10.77 141.499 11.1567 142.272 11.93C143.059 12.69 143.452 13.7834 143.452 15.21V19.09C143.452 19.37 143.499 19.5634 143.592 19.67C143.699 19.7767 143.852 19.83 144.052 19.83H144.392V21.69C144.312 21.7167 144.179 21.7367 143.992 21.75C143.819 21.7634 143.639 21.77 143.452 21.77C143.012 21.77 142.619 21.7034 142.272 21.57C141.925 21.4234 141.659 21.1767 141.472 20.83C141.285 20.47 141.192 19.9834 141.192 19.37L141.412 19.53C141.305 19.9967 141.072 20.4167 140.712 20.79C140.365 21.15 139.925 21.43 139.392 21.63C138.859 21.83 138.259 21.93 137.592 21.93ZM138.112 20.07C138.685 20.07 139.179 19.9567 139.592 19.73C140.005 19.5034 140.325 19.19 140.552 18.79C140.779 18.39 140.892 17.9167 140.892 17.37V16.77L138.132 17.33C137.559 17.45 137.145 17.63 136.892 17.87C136.652 18.0967 136.532 18.3967 136.532 18.77C136.532 19.1834 136.665 19.5034 136.932 19.73C137.212 19.9567 137.605 20.07 138.112 20.07Z" fill="black"/>
<path d="M130.116 21.69V11.01H132.676V21.69H130.116ZM130.076 9.59V7.31H132.736V9.59H130.076Z" fill="black"/>
<path d="M122.607 21.93C121.7 21.93 120.914 21.7033 120.247 21.25C119.594 20.7967 119.087 20.15 118.727 19.31C118.367 18.47 118.187 17.4833 118.187 16.35C118.187 15.2167 118.367 14.23 118.727 13.39C119.087 12.55 119.6 11.9033 120.267 11.45C120.934 10.9967 121.714 10.77 122.607 10.77C123.354 10.77 124.007 10.9233 124.567 11.23C125.14 11.5367 125.574 11.97 125.867 12.53V7.48999H128.427V21.69H125.987L125.927 20.11C125.634 20.6833 125.194 21.13 124.607 21.45C124.02 21.77 123.354 21.93 122.607 21.93ZM123.387 19.85C123.92 19.85 124.367 19.7167 124.727 19.45C125.1 19.1833 125.38 18.79 125.567 18.27C125.767 17.7367 125.867 17.0967 125.867 16.35C125.867 15.59 125.767 14.95 125.567 14.43C125.38 13.91 125.1 13.5167 124.727 13.25C124.367 12.9833 123.92 12.85 123.387 12.85C122.614 12.85 121.994 13.1633 121.527 13.79C121.074 14.4033 120.847 15.2567 120.847 16.35C120.847 17.4167 121.074 18.27 121.527 18.91C121.994 19.5367 122.614 19.85 123.387 19.85Z" fill="black"/>
<path d="M112.606 21.93C111.539 21.93 110.613 21.7034 109.826 21.25C109.039 20.7834 108.433 20.13 108.006 19.29C107.579 18.45 107.366 17.47 107.366 16.35C107.366 15.23 107.579 14.2567 108.006 13.43C108.433 12.59 109.033 11.9367 109.806 11.47C110.593 11.0034 111.506 10.77 112.546 10.77C113.559 10.77 114.446 10.9967 115.206 11.45C115.979 11.9034 116.573 12.5567 116.986 13.41C117.399 14.2634 117.606 15.29 117.606 16.49V17.07H110.026C110.079 18.0034 110.333 18.71 110.786 19.19C111.253 19.6567 111.866 19.89 112.626 19.89C113.199 19.89 113.673 19.7634 114.046 19.51C114.433 19.2434 114.699 18.8767 114.846 18.41L117.466 18.57C117.173 19.61 116.593 20.43 115.726 21.03C114.873 21.63 113.833 21.93 112.606 21.93ZM110.026 15.35H114.966C114.913 14.4834 114.666 13.8434 114.226 13.43C113.786 13.0034 113.226 12.79 112.546 12.79C111.866 12.79 111.299 13.01 110.846 13.45C110.406 13.89 110.133 14.5234 110.026 15.35Z" fill="black"/>
<path d="M91.2078 21.69V11.01H93.5278L93.6078 13.63L93.3678 13.51C93.4878 12.9367 93.6944 12.45 93.9878 12.05C94.2944 11.6367 94.6611 11.3234 95.0878 11.11C95.5278 10.8834 96.0078 10.77 96.5278 10.77C97.4344 10.77 98.1678 11.03 98.7278 11.55C99.2878 12.0567 99.6411 12.7567 99.7878 13.65H99.4478C99.5678 13.0234 99.7744 12.5034 100.068 12.09C100.361 11.6634 100.728 11.3367 101.168 11.11C101.621 10.8834 102.128 10.77 102.688 10.77C103.421 10.77 104.054 10.93 104.588 11.25C105.121 11.5567 105.528 12.01 105.808 12.61C106.101 13.21 106.248 13.95 106.248 14.83V21.69H103.688V15.49C103.688 14.61 103.534 13.95 103.228 13.51C102.934 13.07 102.481 12.85 101.868 12.85C101.454 12.85 101.101 12.9567 100.808 13.17C100.514 13.3834 100.288 13.6967 100.128 14.11C99.9811 14.51 99.9078 14.9967 99.9078 15.57V21.69H97.5278V15.57C97.5278 14.69 97.3944 14.0167 97.1278 13.55C96.8611 13.0834 96.4011 12.85 95.7478 12.85C95.3344 12.85 94.9811 12.9567 94.6878 13.17C94.4078 13.3834 94.1811 13.6967 94.0078 14.11C93.8478 14.51 93.7678 14.9967 93.7678 15.57V21.69H91.2078Z" fill="black"/>
<path d="M83.0284 16.93V14.77H89.8284V16.93H83.0284Z" fill="black"/>
<path d="M80.7206 21.69C79.6539 21.69 78.8673 21.4433 78.3606 20.95C77.8673 20.4567 77.6206 19.6833 77.6206 18.63V8.51001H80.1806V18.39C80.1806 18.8833 80.2873 19.23 80.5006 19.43C80.7139 19.6167 81.0473 19.71 81.5006 19.71H83.0006V21.69H80.7206ZM75.9406 12.99V11.01H83.0006V12.99H75.9406Z" fill="black"/>
<path d="M70.8454 21.93C69.7788 21.93 68.8521 21.7034 68.0654 21.25C67.2788 20.7834 66.6654 20.13 66.2254 19.29C65.7988 18.45 65.5854 17.47 65.5854 16.35C65.5854 15.23 65.7988 14.2567 66.2254 13.43C66.6654 12.59 67.2788 11.9367 68.0654 11.47C68.8521 11.0034 69.7788 10.77 70.8454 10.77C71.7521 10.77 72.5588 10.93 73.2654 11.25C73.9721 11.57 74.5454 12.03 74.9854 12.63C75.4388 13.2167 75.7188 13.9367 75.8254 14.79L73.1854 14.93C73.0788 14.25 72.8121 13.7367 72.3854 13.39C71.9721 13.03 71.4588 12.85 70.8454 12.85C70.0188 12.85 69.3788 13.1634 68.9254 13.79C68.4721 14.4034 68.2454 15.2567 68.2454 16.35C68.2454 17.4567 68.4721 18.3167 68.9254 18.93C69.3788 19.5434 70.0188 19.85 70.8454 19.85C71.4721 19.85 71.9921 19.67 72.4054 19.31C72.8321 18.95 73.0921 18.39 73.1854 17.63L75.8254 17.75C75.7188 18.6034 75.4455 19.3434 75.0055 19.97C74.5655 20.5967 73.9921 21.0834 73.2854 21.43C72.5788 21.7634 71.7654 21.93 70.8454 21.93Z" fill="black"/>
<path d="M58.6601 21.93C57.5401 21.93 56.6401 21.6767 55.9601 21.17C55.2801 20.65 54.9401 19.93 54.9401 19.01C54.9401 18.09 55.2268 17.37 55.8001 16.85C56.3735 16.33 57.2468 15.9567 58.4201 15.73L61.9601 15.03C61.9601 14.27 61.7868 13.7034 61.4401 13.33C61.0935 12.9434 60.5801 12.75 59.9001 12.75C59.2868 12.75 58.8001 12.8967 58.4401 13.19C58.0935 13.47 57.8535 13.8767 57.7201 14.41L55.1201 14.29C55.3335 13.1567 55.8535 12.29 56.6801 11.69C57.5068 11.0767 58.5801 10.77 59.9001 10.77C61.4201 10.77 62.5668 11.1567 63.3401 11.93C64.1268 12.69 64.5201 13.7834 64.5201 15.21V19.09C64.5201 19.37 64.5668 19.5634 64.6601 19.67C64.7668 19.7767 64.9201 19.83 65.1201 19.83H65.4601V21.69C65.3801 21.7167 65.2468 21.7367 65.0601 21.75C64.8868 21.7634 64.7068 21.77 64.5201 21.77C64.0801 21.77 63.6868 21.7034 63.3401 21.57C62.9935 21.4234 62.7268 21.1767 62.5401 20.83C62.3535 20.47 62.2601 19.9834 62.2601 19.37L62.4801 19.53C62.3735 19.9967 62.1401 20.4167 61.7801 20.79C61.4335 21.15 60.9935 21.43 60.4601 21.63C59.9268 21.83 59.3268 21.93 58.6601 21.93ZM59.1801 20.07C59.7535 20.07 60.2468 19.9567 60.6601 19.73C61.0735 19.5034 61.3935 19.19 61.6201 18.79C61.8468 18.39 61.9601 17.9167 61.9601 17.37V16.77L59.2001 17.33C58.6268 17.45 58.2135 17.63 57.9601 17.87C57.7201 18.0967 57.6001 18.3967 57.6001 18.77C57.6001 19.1834 57.7335 19.5034 58.0001 19.73C58.2801 19.9567 58.6735 20.07 59.1801 20.07Z" fill="black"/>
<path d="M49.2028 21.93C48.1361 21.93 47.2094 21.7034 46.4228 21.25C45.6361 20.7834 45.0294 20.13 44.6028 19.29C44.1761 18.45 43.9628 17.47 43.9628 16.35C43.9628 15.23 44.1761 14.2567 44.6028 13.43C45.0294 12.59 45.6294 11.9367 46.4028 11.47C47.1894 11.0034 48.1028 10.77 49.1428 10.77C50.1561 10.77 51.0428 10.9967 51.8028 11.45C52.5761 11.9034 53.1694 12.5567 53.5828 13.41C53.9961 14.2634 54.2028 15.29 54.2028 16.49V17.07H46.6228C46.6761 18.0034 46.9294 18.71 47.3828 19.19C47.8494 19.6567 48.4628 19.89 49.2228 19.89C49.7961 19.89 50.2694 19.7634 50.6428 19.51C51.0294 19.2434 51.2961 18.8767 51.4428 18.41L54.0628 18.57C53.7694 19.61 53.1894 20.43 52.3228 21.03C51.4694 21.63 50.4294 21.93 49.2028 21.93ZM46.6228 15.35H51.5628C51.5094 14.4834 51.2628 13.8434 50.8228 13.43C50.3828 13.0034 49.8228 12.79 49.1428 12.79C48.4628 12.79 47.8961 13.01 47.4428 13.45C47.0028 13.89 46.7294 14.5234 46.6228 15.35Z" fill="black"/>
<path d="M38 21.69V11.01H40.4L40.5 13.97L40.28 13.93C40.44 12.9033 40.74 12.1633 41.18 11.71C41.6333 11.2433 42.2467 11.01 43.02 11.01H44V13.21H43C42.4533 13.21 42 13.29 41.64 13.45C41.28 13.61 41.0067 13.8633 40.82 14.21C40.6467 14.5433 40.56 14.9833 40.56 15.53V21.69H38Z" fill="black"/>
<defs>
<linearGradient id="paint0_linear_238_699" x1="24.0728" y1="13.9132" x2="24.0728" y2="23.1459" gradientUnits="userSpaceOnUse">
<stop/>
<stop offset="1" stop-color="white"/>
</linearGradient>
</defs>
</svg>
